<svg id="Calque_1" data-name="Calque 1" xmlns="http://www.w3.org/2000/svg" viewBox="0 0 64 64"><defs><style>.cls-1{fill:#1d1d1b;}</style></defs><title>Plan de travail 1 copie 3PIcto</title><path class="cls-1" d="M12.36,42.12A4.07,4.07,0,0,0,8.49,45H5.6V35.71H16.2v-14H7.51L3.6,33.42V47H8.37a4.07,4.07,0,1,0,4-4.88ZM9,23.66H14.2V33.71H5.62Zm3.41,24.76a2.23,2.23,0,1,1,2.22-2.23A2.23,2.23,0,0,1,12.36,48.42Z"/><path class="cls-1" d="M48.56,42.12A4.07,4.07,0,0,0,44.68,45H18.08v2H44.57a4.07,4.07,0,1,0,4-4.88Zm0,6.29a2.22,2.22,0,1,1,2.22-2.22A2.23,2.23,0,0,1,48.56,48.41Z"/><path class="cls-1" d="M60.4,13.66H18.65V40.33h35.6v6.46h2V40.33H60.4Zm-2,24.67H20.65V15.66H58.4Z"/></svg>