<svg id="Calque_1" data-name="Calque 1" xmlns="http://www.w3.org/2000/svg" viewBox="0 0 64 64"><defs><style>.cls-1{fill:#1d1d1b;}</style></defs><title>Plan de travail 1 copiePIcto</title><path class="cls-1" d="M31.93,7.67a24.26,24.26,0,0,1,17,6.91h-6.6v2h10v-10h-2v6.27A26.56,26.56,0,0,0,5.36,32,26.82,26.82,0,0,0,6,37.57l2.2-.47A24.33,24.33,0,0,1,31.93,7.67Z"/><path class="cls-1" d="M57.66,25.3l-2.18.57a24.32,24.32,0,0,1-41.43,22.6h6.83v-2h-10v10h2v-6A26.57,26.57,0,0,0,58.51,32,27,27,0,0,0,57.66,25.3Z"/><path class="cls-1" d="M17,29.84v0A2.7,2.7,0,0,0,14.09,27a2.71,2.71,0,0,0-2.93,2.92v4a2.71,2.71,0,0,0,2.93,2.91A2.71,2.71,0,0,0,17,33.88v-.36a2.71,2.71,0,0,0-2.83-2.92,2.69,2.69,0,0,0-1.6.49V29.92a1.4,1.4,0,0,1,1.5-1.57,1.38,1.38,0,0,1,1.5,1.47v0ZM14.09,32a1.39,1.39,0,0,1,1.5,1.57v.3a1.4,1.4,0,0,1-1.5,1.57,1.4,1.4,0,0,1-1.5-1.57v-.3A1.4,1.4,0,0,1,14.09,32Z"/><path class="cls-1" d="M18.12,29.89v4a2.71,2.71,0,0,0,2.93,2.91A2.71,2.71,0,0,0,24,33.88v-4A2.71,2.71,0,0,0,21.05,27,2.71,2.71,0,0,0,18.12,29.89Zm4.43,0v3.93a1.4,1.4,0,0,1-1.5,1.57,1.4,1.4,0,0,1-1.5-1.57V29.92a1.4,1.4,0,0,1,1.5-1.57A1.4,1.4,0,0,1,22.55,29.92Z"/><path class="cls-1" d="M33.55,36.66V27.11H32.12v3.12a1.92,1.92,0,0,0-1.63-.8,2.71,2.71,0,0,0-2.8,2.92v1.53a2.71,2.71,0,0,0,2.8,2.91,1.92,1.92,0,0,0,1.63-.8v.67Zm-3-1.26a1.37,1.37,0,0,1-1.41-1.55V32.38a1.5,1.5,0,1,1,3,0v1.47A1.45,1.45,0,0,1,30.53,35.4Z"/><path class="cls-1" d="M40.65,36.66V32.35a2.72,2.72,0,0,0-2.94-2.92,2.68,2.68,0,0,0-2.89,2.37h1.46a1.51,1.51,0,0,1,2.92.37h0a13.8,13.8,0,0,0-3,.41,2.1,2.1,0,0,0-1.53,2.12c0,1.44,1.12,2.08,2.4,2.08a2.57,2.57,0,0,0,2.1-.8v.67Zm-3.3-1.24c-.77,0-1.2-.26-1.2-.84a.7.7,0,0,1,.34-.65,7,7,0,0,1,2.72-.48v.4C39.21,35.16,38.17,35.42,37.35,35.42Z"/><path class="cls-1" d="M42.34,37.79h-.29v1.38h.74c.84,0,1.35-.3,1.55-.89l3.13-8.66H46l-1.76,5-1.76-5H41l2.51,6.94-.19.52C43.06,37.67,43,37.79,42.34,37.79Z"/><path class="cls-1" d="M47.67,31.5a2,2,0,0,0,1.79,2.1l1.33.34c.47.11.89.26.89.74s-.53.74-1.16.74-1.43-.32-1.54-1H47.51c.08,1.61,1.37,2.38,3,2.38s2.6-.68,2.62-2.07-.64-1.88-1.93-2.21l-1.29-.33c-.38-.09-.79-.23-.79-.65s.57-.72,1-.72c.65,0,1.18.26,1.29.87h1.5c-.13-1.57-1.18-2.25-2.7-2.25S47.67,30.11,47.67,31.5Z"/></svg>