<svg id="Calque_1" data-name="Calque 1" xmlns="http://www.w3.org/2000/svg" viewBox="0 0 64 64"><defs><style>.cls-1{fill:#010000;}</style></defs><title>Plan de travail 1 copie 5PIcto</title><path class="cls-1" d="M48.66,55.42H15.34V28.53H48.66Zm-31.32-2H46.66V30.53H17.34Z"/><path class="cls-1" d="M42.54,26.83h-2V19.12a8.54,8.54,0,1,0-17.08,0v7.71h-2V19.12a10.54,10.54,0,1,1,21.08,0Z"/><path class="cls-1" d="M36.68,50.34H27.32L29,41.4a4.94,4.94,0,0,1-2-4,5,5,0,0,1,10,0,4.92,4.92,0,0,1-2,4Zm-7.27-1.75h5.17l-1.46-8,.53-.31a3.24,3.24,0,0,0,1.62-2.8,3.27,3.27,0,1,0-4.92,2.81l.53.3Z"/></svg>