<svg id="Calque_1" data-name="Calque 1" xmlns="http://www.w3.org/2000/svg" viewBox="0 0 64 64"><defs><style>.cls-1{fill:#1d1d1b;}</style></defs><title>Plan de travail 1 copie 7PIcto</title><path class="cls-1" d="M17.59,10.9a2.7,2.7,0,0,0,2.89-2.85V5.44a2.7,2.7,0,0,0-2.89-2.85,2.71,2.71,0,0,0-2.9,2.85V8.05A2.71,2.71,0,0,0,17.59,10.9ZM15.93,5.44a1.56,1.56,0,0,1,1.66-1.62,1.56,1.56,0,0,1,1.66,1.62V8.05a1.57,1.57,0,0,1-1.66,1.63,1.57,1.57,0,0,1-1.66-1.63Z"/><rect class="cls-1" x="29.62" y="4.83" width="1.21" height="5.95"/><rect class="cls-1" x="29.62" y="2.71" width="1.21" height="1.23"/><path class="cls-1" d="M22.19,10.78H23.4V6h1.46V4.83H23.4V4.44c0-.44.08-.57.55-.57h.91V2.71H23.61a1.24,1.24,0,0,0-1.42,1.42v.7h-.84V6h.84Z"/><path class="cls-1" d="M26.05,10.78h1.21V6h1.47V4.83H27.26V4.44c0-.44.08-.57.56-.57h.91V2.71H27.47a1.24,1.24,0,0,0-1.42,1.42v.7h-.84V6h.84Z"/><path class="cls-1" d="M34.73,10.9A2.28,2.28,0,0,0,37.2,8.75H36a1.15,1.15,0,0,1-1.25,1,1.17,1.17,0,0,1-1.26-1.32V7.16a1.18,1.18,0,0,1,1.26-1.33,1.15,1.15,0,0,1,1.24,1H37.2a2.28,2.28,0,0,0-2.47-2.15,2.3,2.3,0,0,0-2.48,2.47V8.43A2.3,2.3,0,0,0,34.73,10.9Z"/><rect class="cls-1" x="38.52" y="4.83" width="1.21" height="5.95"/><rect class="cls-1" x="38.52" y="2.71" width="1.21" height="1.23"/><path class="cls-1" d="M42.34,7.35a1.76,1.76,0,0,0-1.29,1.78c0,1.23,1,1.77,2,1.77a2.2,2.2,0,0,0,1.78-.68v.56h1.21V7.14a2.49,2.49,0,0,0-4.93-.46h1.24a1.15,1.15,0,0,1,1.21-.85A1.16,1.16,0,0,1,44.85,7h0A11.32,11.32,0,0,0,42.34,7.35Zm2.52.72v.34c0,1.11-.89,1.32-1.58,1.32s-1-.21-1-.7a.59.59,0,0,1,.29-.55A5.87,5.87,0,0,1,44.86,8.07Z"/><path class="cls-1" d="M49,10.78h.54V9.62h-.19c-.47,0-.55-.13-.55-.57V2.71H47.56V9.37A1.23,1.23,0,0,0,49,10.78Z"/><polygon class="cls-1" points="15.43 57.6 14.41 53.55 13.12 53.55 12.1 57.6 11.11 53.55 9.88 53.55 11.45 59.51 12.67 59.51 13.77 55.13 14.86 59.51 16.08 59.51 17.65 53.55 16.42 53.55 15.43 57.6"/><path class="cls-1" d="M20.76,53.39a2.27,2.27,0,0,0-2.44,2h1.23a1.14,1.14,0,0,1,1.21-.84A1.15,1.15,0,0,1,22,55.71h0a11.22,11.22,0,0,0-2.5.35,1.76,1.76,0,0,0-1.29,1.79c0,1.22.94,1.76,2,1.76A2.19,2.19,0,0,0,22,58.94v.56h1.21V55.86A2.3,2.3,0,0,0,20.76,53.39ZM22,57.13c0,1.11-.88,1.33-1.58,1.33s-1-.22-1-.71a.59.59,0,0,1,.29-.55,5.77,5.77,0,0,1,2.3-.41Z"/><path class="cls-1" d="M26,54.13v-.58H24.75v6H26V55.94a1.17,1.17,0,0,1,1.27-1.31h.58V53.45h-.46A1.65,1.65,0,0,0,26,54.13Z"/><path class="cls-1" d="M29.94,54.13v-.58H28.73v6h1.21V55.94a1.17,1.17,0,0,1,1.27-1.31h.58V53.45h-.46A1.63,1.63,0,0,0,29.94,54.13Z"/><path class="cls-1" d="M34.91,53.39a2.27,2.27,0,0,0-2.44,2H33.7a1.14,1.14,0,0,1,1.21-.84,1.15,1.15,0,0,1,1.26,1.15h0a11.22,11.22,0,0,0-2.5.35,1.76,1.76,0,0,0-1.29,1.79c0,1.22.94,1.76,2,1.76a2.19,2.19,0,0,0,1.77-.68v.56h1.21V55.86A2.3,2.3,0,0,0,34.91,53.39Zm1.27,3.74c0,1.11-.89,1.33-1.58,1.33s-1-.22-1-.71a.59.59,0,0,1,.29-.55,5.77,5.77,0,0,1,2.3-.41Z"/><path class="cls-1" d="M41.5,53.39a1.67,1.67,0,0,0-1.39.68v-.52H38.9v6h1.21V55.88a1.27,1.27,0,1,1,2.54,0V59.5h1.21V55.86A2.29,2.29,0,0,0,41.5,53.39Z"/><path class="cls-1" d="M46.86,52.2H45.65v1.35h-.84v1.14h.84v3.4a1.24,1.24,0,0,0,1.42,1.41h1.25V58.34h-.91c-.47,0-.55-.13-.55-.57V54.69h1.46V53.55H46.86Z"/><path class="cls-1" d="M53,53.55l-1.49,4.24L50,53.55H48.71l2.13,5.87-.16.44c-.2.5-.22.6-.81.6h-.24v1.17h.62a1.21,1.21,0,0,0,1.31-.75l2.65-7.33Z"/><path class="cls-1" d="M34.11,44.06a30.84,30.84,0,0,0,4.06-1.64c7.43-3.69,9.24-8.65,9.67-10.61.7-3.14.27-5.86-1.51-9.69a24.12,24.12,0,0,0-4.84-6.76l-1.17,1.16a22.49,22.49,0,0,1,4.51,6.3c1.87,4,1.92,6.27,1.4,8.64-.3,1.34-1.81,6-8.79,9.48a36.48,36.48,0,0,1-6.07,2.25,37.14,37.14,0,0,1-6.07-2.25c-7-3.47-8.49-8.14-8.79-9.48-.52-2.37-.47-4.63,1.4-8.64a22.54,22.54,0,0,1,4.52-6.3l-1.18-1.16a24.27,24.27,0,0,0-4.83,6.76c-1.79,3.83-2.21,6.55-1.52,9.69.44,2,2.25,6.92,9.67,10.61a30.84,30.84,0,0,0,4.06,1.64,19.17,19.17,0,0,0-5.78,3.08l1,1.29a20.38,20.38,0,0,1,7.49-3.51,20.5,20.5,0,0,1,7.5,3.51l1-1.29A18.94,18.94,0,0,0,34.11,44.06Z"/><path class="cls-1" d="M14.59,39.71l.59.22a10,10,0,0,0,3.92.84l.56,0-.07-1.3a8.53,8.53,0,0,1-3.94-.73L15,38.49Z"/><path class="cls-1" d="M21.58,37a15.79,15.79,0,0,0-.34-5.24L20,32a14.42,14.42,0,0,1,.32,4.8Z"/><path class="cls-1" d="M12.85,33.16l-.46-.47-.92.92.45.45a9.92,9.92,0,0,0,3.72,2.65l.49-1.2A8.78,8.78,0,0,1,12.85,33.16Z"/><path class="cls-1" d="M13.44,31.22l.88-1A8.9,8.9,0,0,1,12,26.9l-.27-.61-1.18.56.27.58A10.14,10.14,0,0,0,13.44,31.22Z"/><path class="cls-1" d="M17.26,32.27l1.08.72a15.64,15.64,0,0,0,2.06-4.83l-1.26-.32A14.82,14.82,0,0,1,17.26,32.27Z"/><path class="cls-1" d="M13.75,25.39l1.11-.67a8.94,8.94,0,0,1-1.24-3.88c0-.22-.06-.44-.1-.66l-1.28.2.09.64A10.36,10.36,0,0,0,13.75,25.39Z"/><path class="cls-1" d="M20.76,23a14,14,0,0,1-3.57,3.15l.66,1.12a15.35,15.35,0,0,0,3.91-3.44Z"/><path class="cls-1" d="M17,14.77l-1.3-.07c0,.22,0,.44-.05.67a11.46,11.46,0,0,0,.46,4.8l1.24-.39a10.17,10.17,0,0,1-.4-4.32C17,15.23,17,15,17,14.77Z"/><path class="cls-1" d="M23.84,18.91a13.82,13.82,0,0,1-4.34,1.93l.29,1.27A15.39,15.39,0,0,0,24.54,20Z"/><path class="cls-1" d="M43.15,39.56l-.06,1.3.54,0A10.13,10.13,0,0,0,47.56,40l.59-.22-.44-1.22-.61.23A8.58,8.58,0,0,1,43.15,39.56Z"/><path class="cls-1" d="M41.29,31.74A15.73,15.73,0,0,0,41,37l1.29-.16a14.45,14.45,0,0,1,.32-4.8Z"/><path class="cls-1" d="M51,34.07l.45-.46-.91-.92-.47.47a8.78,8.78,0,0,1-3.28,2.35l.49,1.2A10.2,10.2,0,0,0,51,34.07Z"/><path class="cls-1" d="M48.64,30.26l.88,1a10.37,10.37,0,0,0,2.59-3.78c.09-.2.17-.39.27-.59l-1.18-.56c-.09.21-.19.41-.28.62A8.83,8.83,0,0,1,48.64,30.26Z"/><path class="cls-1" d="M45.48,32.27a14.18,14.18,0,0,1-1.87-4.43l-1.26.32a15.6,15.6,0,0,0,2,4.83Z"/><path class="cls-1" d="M49.23,20.73A9,9,0,0,1,48,24.62l1.11.66a10.36,10.36,0,0,0,1.42-4.37l.09-.64-1.28-.2C49.29,20.29,49.26,20.51,49.23,20.73Z"/><path class="cls-1" d="M42,23l-1,.83a15.38,15.38,0,0,0,3.92,3.44l.65-1.12A13.82,13.82,0,0,1,42,23Z"/><path class="cls-1" d="M45.78,15.47a9.82,9.82,0,0,1-.4,4.31l1.24.39a11.4,11.4,0,0,0,.46-4.79c0-.23,0-.46,0-.68l-1.3.07C45.75,15,45.77,15.24,45.78,15.47Z"/><path class="cls-1" d="M43.24,20.84a13.68,13.68,0,0,1-4.33-1.93L38.2,20A15.39,15.39,0,0,0,43,22.11Z"/></svg>